<?xml version="1.0" encoding="utf-8"?>
<!-- Generator: Adobe Illustrator 21.1.0, SVG Export Plug-In . SVG Version: 6.00 Build 0)  -->
<svg version="1.1" id="Слой_1" xmlns="http://www.w3.org/2000/svg" xmlns:xlink="http://www.w3.org/1999/xlink" x="0px" y="0px"
	 viewBox="0 0 1792 1516" style="enable-background:new 0 0 1792 1516;" xml:space="preserve">
<path d="M597,283v1173c0,16.7-4.2,30.8-12.5,42.5S564,1516,548,1516c-11.3,0-22.3-2.7-33-8L50,1275c-14-6.7-25.8-17.8-35.5-33.5
	S0,1210.3,0,1195V55c0-13.3,3.3-24.7,10-34S26.3,7,39,7c9.3,0,24,5,44,15l511,256C596,280,597,281.7,597,283z M661,384l534,866
	L661,984V384z M1792,402v1054c0,16.7-4.7,30.2-14,40.5s-22,15.5-38,15.5s-31.7-4.3-47-13l-441-220L1792,402z M1789,282
	c0,2-85.5,141.8-256.5,419.5S1261.3,1141.7,1232,1189L842,555l324-527c11.3-18.7,28.7-28,52-28c9.3,0,18,2,26,6l541,270
	C1787.7,277.3,1789,279.3,1789,282z"/>
</svg>
